<mxfile host="app.diagrams.net" modified="2023-01-13T02:40:38.799Z" agent="5.0 (Macintosh; Intel Mac OS X 10_15_7) AppleWebKit/537.36 (KHTML, like Gecko) Chrome/108.0.0.0 Safari/537.36" etag="PjjqX4UPDTrrdCHUWSqz" version="20.8.5" type="github">
  <diagram id="fjduiyEsUoglJkwSL5bM" name="Page-1">
    <mxGraphModel dx="954" dy="647" grid="1" gridSize="10" guides="1" tooltips="1" connect="1" arrows="1" fold="1" page="1" pageScale="1" pageWidth="850" pageHeight="1100" math="0" shadow="0">
      <root>
        <mxCell id="0" />
        <mxCell id="1" parent="0" />
        <mxCell id="5mzAjSZ-VB4Hq1nsovqo-7" value="" style="edgeStyle=orthogonalEdgeStyle;rounded=0;orthogonalLoop=1;jettySize=auto;html=1;" parent="1" source="5mzAjSZ-VB4Hq1nsovqo-1" target="5mzAjSZ-VB4Hq1nsovqo-6" edge="1">
          <mxGeometry relative="1" as="geometry" />
        </mxCell>
        <mxCell id="5mzAjSZ-VB4Hq1nsovqo-1" value="Class Player" style="rounded=0;whiteSpace=wrap;html=1;" parent="1" vertex="1">
          <mxGeometry x="250" y="35" width="200" height="35" as="geometry" />
        </mxCell>
        <mxCell id="5mzAjSZ-VB4Hq1nsovqo-9" value="" style="edgeStyle=orthogonalEdgeStyle;rounded=0;orthogonalLoop=1;jettySize=auto;html=1;" parent="1" edge="1">
          <mxGeometry relative="1" as="geometry">
            <mxPoint x="475" y="70" as="sourcePoint" />
            <mxPoint x="475" y="70" as="targetPoint" />
          </mxGeometry>
        </mxCell>
        <mxCell id="5mzAjSZ-VB4Hq1nsovqo-11" value="" style="edgeStyle=orthogonalEdgeStyle;rounded=0;orthogonalLoop=1;jettySize=auto;html=1;" parent="1" edge="1">
          <mxGeometry relative="1" as="geometry">
            <mxPoint x="640" y="75" as="sourcePoint" />
            <mxPoint x="640" y="75" as="targetPoint" />
          </mxGeometry>
        </mxCell>
        <mxCell id="5mzAjSZ-VB4Hq1nsovqo-15" value="" style="edgeStyle=orthogonalEdgeStyle;rounded=0;orthogonalLoop=1;jettySize=auto;html=1;" parent="1" source="5mzAjSZ-VB4Hq1nsovqo-6" target="5mzAjSZ-VB4Hq1nsovqo-14" edge="1">
          <mxGeometry relative="1" as="geometry" />
        </mxCell>
        <mxCell id="5mzAjSZ-VB4Hq1nsovqo-6" value="" style="rounded=0;whiteSpace=wrap;html=1;" parent="1" vertex="1">
          <mxGeometry x="250" y="70" width="200" height="60" as="geometry" />
        </mxCell>
        <mxCell id="5mzAjSZ-VB4Hq1nsovqo-17" value="" style="edgeStyle=orthogonalEdgeStyle;rounded=0;orthogonalLoop=1;jettySize=auto;html=1;" parent="1" edge="1">
          <mxGeometry relative="1" as="geometry">
            <mxPoint x="475" y="105" as="targetPoint" />
            <mxPoint x="475" y="105" as="sourcePoint" />
          </mxGeometry>
        </mxCell>
        <mxCell id="5mzAjSZ-VB4Hq1nsovqo-19" value="" style="edgeStyle=orthogonalEdgeStyle;rounded=0;orthogonalLoop=1;jettySize=auto;html=1;" parent="1" edge="1">
          <mxGeometry relative="1" as="geometry">
            <mxPoint x="640" y="110" as="sourcePoint" />
            <mxPoint x="640" y="110" as="targetPoint" />
          </mxGeometry>
        </mxCell>
        <mxCell id="5mzAjSZ-VB4Hq1nsovqo-14" value="+ getName: String&lt;br&gt;+ getScore: int&lt;br&gt;- generateRack: void&lt;br&gt;+ addScore: void&lt;br&gt;+ draw: void&lt;br&gt;+ swapTiles: void&lt;br&gt;+ canSwap: boolean&lt;br&gt;+ toString: String&lt;br&gt;+ hasLettersInRack: boolean&lt;br&gt;- removeLettersFromWord: String&lt;br&gt;+ lettersUsedOnRack: int" style="rounded=0;whiteSpace=wrap;html=1;align=left;" parent="1" vertex="1">
          <mxGeometry x="250" y="126" width="200" height="164" as="geometry" />
        </mxCell>
        <mxCell id="5mzAjSZ-VB4Hq1nsovqo-21" value="Class Board" style="rounded=0;whiteSpace=wrap;html=1;" parent="1" vertex="1">
          <mxGeometry x="40" y="40" width="200" height="40" as="geometry" />
        </mxCell>
        <mxCell id="bkdTAchEg8r-xzrMOhbY-10" value="" style="edgeStyle=orthogonalEdgeStyle;rounded=0;orthogonalLoop=1;jettySize=auto;html=1;" parent="1" source="5mzAjSZ-VB4Hq1nsovqo-24" edge="1">
          <mxGeometry relative="1" as="geometry">
            <mxPoint x="150" y="112.5" as="targetPoint" />
          </mxGeometry>
        </mxCell>
        <mxCell id="5mzAjSZ-VB4Hq1nsovqo-24" value="- board: Tile[][]&lt;br&gt;- powerUps: String[][]" style="rounded=0;whiteSpace=wrap;html=1;align=left;" parent="1" vertex="1">
          <mxGeometry x="40" y="70" width="200" height="50" as="geometry" />
        </mxCell>
        <mxCell id="bkdTAchEg8r-xzrMOhbY-9" value="+ getBoard: Tile[][]&lt;br&gt;+ setBoard: void&lt;br&gt;+ getPowerUps: String[][]&lt;br&gt;+ setPowerUps: void&lt;br&gt;- generateSpecialTiles: String[][]&lt;br&gt;- generateTripleWordScore: String[][]&lt;br&gt;- generateDoubleWordScore: String[]][&lt;br&gt;- generateDoubleLetterScore: String[][]&lt;br&gt;- generateTripleLetterScore: String[][]&lt;br&gt;- generateTiles: Tiles[][]&lt;br&gt;+ hasPowerUps: boolean&lt;br&gt;+ toString: String&lt;br&gt;+ placeWord: void&lt;br&gt;+ getRow: int&lt;br&gt;+ getColumn: int&lt;br&gt;+ validLocation: boolean&lt;br&gt;+ isAdj: boolean&lt;br&gt;+ getTotalWordScore: int&lt;br&gt;- getScoreMultipliers: String&lt;br&gt;+ isMiddle: boolean&lt;br&gt;+ isValidLimit: boolean&lt;br&gt;+ lettersAlreadyOnBoard: String&lt;br&gt;+ isTilesOnBoard: boolean" style="rounded=0;whiteSpace=wrap;html=1;align=left;" parent="1" vertex="1">
          <mxGeometry x="40" y="120" width="200" height="410" as="geometry" />
        </mxCell>
        <mxCell id="bkdTAchEg8r-xzrMOhbY-11" value="- score: int&lt;br&gt;- name: String&lt;br&gt;- rack: String[]&lt;br&gt;+ bag: Bag&lt;br&gt;&lt;div style=&quot;&quot;&gt;&lt;/div&gt;" style="text;html=1;strokeColor=none;fillColor=none;align=left;verticalAlign=middle;whiteSpace=wrap;rounded=0;" parent="1" vertex="1">
          <mxGeometry x="250" y="72.5" width="200" height="47.5" as="geometry" />
        </mxCell>
        <mxCell id="bkdTAchEg8r-xzrMOhbY-16" value="Class Words" style="swimlane;fontStyle=0;align=center;verticalAlign=top;childLayout=stackLayout;horizontal=1;startSize=26;horizontalStack=0;resizeParent=1;resizeParentMax=0;resizeLast=0;collapsible=1;marginBottom=0;" parent="1" vertex="1">
          <mxGeometry x="480" y="40" width="160" height="150" as="geometry" />
        </mxCell>
        <mxCell id="bkdTAchEg8r-xzrMOhbY-17" value="- wordList: ArrayList&lt;String&gt;" style="text;strokeColor=none;fillColor=none;align=left;verticalAlign=top;spacingLeft=4;spacingRight=4;overflow=hidden;rotatable=0;points=[[0,0.5],[1,0.5]];portConstraint=eastwest;" parent="bkdTAchEg8r-xzrMOhbY-16" vertex="1">
          <mxGeometry y="26" width="160" height="26" as="geometry" />
        </mxCell>
        <mxCell id="bkdTAchEg8r-xzrMOhbY-18" value="" style="line;strokeWidth=1;fillColor=none;align=left;verticalAlign=middle;spacingTop=-1;spacingLeft=3;spacingRight=3;rotatable=0;labelPosition=right;points=[];portConstraint=eastwest;strokeColor=inherit;" parent="bkdTAchEg8r-xzrMOhbY-16" vertex="1">
          <mxGeometry y="52" width="160" height="8" as="geometry" />
        </mxCell>
        <mxCell id="bkdTAchEg8r-xzrMOhbY-19" value="+ getWordList: &#xa;ArrayList&lt;String&gt;&#xa;+ validWord: boolean&#xa;- generateWordList: &#xa;ArrayList&lt;String&gt;&#xa;" style="text;strokeColor=none;fillColor=none;align=left;verticalAlign=top;spacingLeft=4;spacingRight=4;overflow=hidden;rotatable=0;points=[[0,0.5],[1,0.5]];portConstraint=eastwest;" parent="bkdTAchEg8r-xzrMOhbY-16" vertex="1">
          <mxGeometry y="60" width="160" height="90" as="geometry" />
        </mxCell>
        <mxCell id="bkdTAchEg8r-xzrMOhbY-20" value="Class Scrabble" style="swimlane;fontStyle=0;align=center;verticalAlign=top;childLayout=stackLayout;horizontal=1;startSize=26;horizontalStack=0;resizeParent=1;resizeParentMax=0;resizeLast=0;collapsible=1;marginBottom=0;" parent="1" vertex="1">
          <mxGeometry x="660" y="40" width="160" height="200" as="geometry" />
        </mxCell>
        <mxCell id="bkdTAchEg8r-xzrMOhbY-21" value="- input: Scanner" style="text;strokeColor=none;fillColor=none;align=left;verticalAlign=top;spacingLeft=4;spacingRight=4;overflow=hidden;rotatable=0;points=[[0,0.5],[1,0.5]];portConstraint=eastwest;" parent="bkdTAchEg8r-xzrMOhbY-20" vertex="1">
          <mxGeometry y="26" width="160" height="26" as="geometry" />
        </mxCell>
        <mxCell id="bkdTAchEg8r-xzrMOhbY-22" value="" style="line;strokeWidth=1;fillColor=none;align=left;verticalAlign=middle;spacingTop=-1;spacingLeft=3;spacingRight=3;rotatable=0;labelPosition=right;points=[];portConstraint=eastwest;strokeColor=inherit;" parent="bkdTAchEg8r-xzrMOhbY-20" vertex="1">
          <mxGeometry y="52" width="160" height="8" as="geometry" />
        </mxCell>
        <mxCell id="bkdTAchEg8r-xzrMOhbY-23" value="+ generatePlayers: Player[]&#xa;+ generateOptions: void&#xa;+ generateScore: String&#xa;+ generateRack: String&#xa;+ determineTurn: int&#xa;+ playWord: void&#xa;+ swapTiles: void&#xa;+ drawForOrder: Players[]&#xa;" style="text;strokeColor=none;fillColor=none;align=left;verticalAlign=top;spacingLeft=4;spacingRight=4;overflow=hidden;rotatable=0;points=[[0,0.5],[1,0.5]];portConstraint=eastwest;" parent="bkdTAchEg8r-xzrMOhbY-20" vertex="1">
          <mxGeometry y="60" width="160" height="140" as="geometry" />
        </mxCell>
        <mxCell id="M8-9OSdSLk0mP-j3o4Zt-1" value="Class Tile" style="rounded=0;whiteSpace=wrap;html=1;" parent="1" vertex="1">
          <mxGeometry x="480" y="220" width="160" height="35" as="geometry" />
        </mxCell>
        <mxCell id="M8-9OSdSLk0mP-j3o4Zt-2" value="Class Bag" style="rounded=0;whiteSpace=wrap;html=1;" parent="1" vertex="1">
          <mxGeometry x="250" y="320" width="200" height="30" as="geometry" />
        </mxCell>
        <mxCell id="M8-9OSdSLk0mP-j3o4Zt-4" value="- letter: String&#xa;- score: int&#xa;- isBlank: boolean" style="text;strokeColor=none;fillColor=none;align=left;verticalAlign=top;spacingLeft=4;spacingRight=4;overflow=hidden;rotatable=0;points=[[0,0.5],[1,0.5]];portConstraint=eastwest;" parent="1" vertex="1">
          <mxGeometry x="480" y="255" width="160" height="55" as="geometry" />
        </mxCell>
        <mxCell id="M8-9OSdSLk0mP-j3o4Zt-7" value="+ getLetter: String&#xa;+ setLetter: void&#xa;+ getScore: int&#xa;+ setScore: void&#xa;+ hasLetter: boolean&#xa;+ generateLetterPoints:&#xa; HashMap&lt;String, Integer&gt;&#xa;" style="text;strokeColor=none;fillColor=none;align=left;verticalAlign=top;spacingLeft=4;spacingRight=4;overflow=hidden;rotatable=0;points=[[0,0.5],[1,0.5]];portConstraint=eastwest;" parent="1" vertex="1">
          <mxGeometry x="480" y="310" width="160" height="120" as="geometry" />
        </mxCell>
        <mxCell id="M8-9OSdSLk0mP-j3o4Zt-8" value="- generateNumOfTiles:&#xa;HashMap&lt;String, Integer&gt;&#xa;+ generateBag: void&#xa;+ getBag: ArrayList&lt;String&gt;&#xa;+ isEmpty: boolean" style="text;strokeColor=none;fillColor=none;align=left;verticalAlign=top;spacingLeft=4;spacingRight=4;overflow=hidden;rotatable=0;points=[[0,0.5],[1,0.5]];portConstraint=eastwest;" parent="1" vertex="1">
          <mxGeometry x="250" y="380" width="200" height="100" as="geometry" />
        </mxCell>
        <mxCell id="M8-9OSdSLk0mP-j3o4Zt-9" value="&lt;span style=&quot;text-align: left;&quot;&gt;- bag: ArrayList&amp;lt;String&amp;gt;&lt;/span&gt;" style="text;html=1;align=center;verticalAlign=middle;resizable=0;points=[];autosize=1;strokeColor=none;fillColor=none;" parent="1" vertex="1">
          <mxGeometry x="250" y="350" width="150" height="30" as="geometry" />
        </mxCell>
        <mxCell id="ey5GYdJYdH_91aJq2ZKi-1" value="Class Leaderboard" style="rounded=0;whiteSpace=wrap;html=1;" parent="1" vertex="1">
          <mxGeometry x="440" y="440" width="200" height="30" as="geometry" />
        </mxCell>
        <mxCell id="ey5GYdJYdH_91aJq2ZKi-2" value="- rankings: Player[]" style="text;strokeColor=none;fillColor=none;align=left;verticalAlign=top;spacingLeft=4;spacingRight=4;overflow=hidden;rotatable=0;points=[[0,0.5],[1,0.5]];portConstraint=eastwest;" parent="1" vertex="1">
          <mxGeometry x="440" y="470" width="200" height="30" as="geometry" />
        </mxCell>
        <mxCell id="ey5GYdJYdH_91aJq2ZKi-3" value="+ getPlayerRankings: void&#xa;+ determineRankings: void&#xa;+ movePlayersDown: void&#xa;+ writePlayerRankings: void&#xa;+ isOnRankings: boolean&#xa;+ toString: String" style="text;strokeColor=none;fillColor=none;align=left;verticalAlign=top;spacingLeft=4;spacingRight=4;overflow=hidden;rotatable=0;points=[[0,0.5],[1,0.5]];portConstraint=eastwest;" parent="1" vertex="1">
          <mxGeometry x="440" y="510" width="200" height="110" as="geometry" />
        </mxCell>
      </root>
    </mxGraphModel>
  </diagram>
</mxfile>
